<svg xmlns="http://www.w3.org/2000/svg" xmlns:xlink="http://www.w3.org/1999/xlink" width="150px"
  height="113px" viewBox="0 0 150 113" version="1.1">
  <g id="surface1">
    <path
      style=" stroke:none;fill-rule:nonzero;fill:rgb(31.764706%,48.235294%,74.117647%);fill-opacity:1;"
      d="M 35.074219 91.582031 L 49.800781 91.582031 L 49.800781 55.671875 L 28.773438 39.828125 L 28.773438 85.226562 C 28.773438 88.742188 31.601562 91.582031 35.074219 91.582031 Z M 35.074219 91.582031 " />
    <path
      style=" stroke:none;fill-rule:nonzero;fill:rgb(19.215686%,65.882353%,32.54902%);fill-opacity:1;"
      d="M 100.273438 91.582031 L 115 91.582031 C 118.476562 91.582031 121.300781 88.742188 121.300781 85.253906 L 121.300781 39.851562 L 100.273438 55.695312 Z M 100.273438 91.582031 " />
    <path
      style=" stroke:none;fill-rule:nonzero;fill:rgb(98.431373%,73.72549%,3.137255%);fill-opacity:1;"
      d="M 100.273438 28.226562 L 100.273438 55.671875 L 121.300781 39.828125 L 121.300781 31.390625 C 121.300781 23.554688 112.398438 19.085938 106.148438 23.78125 Z M 100.273438 28.226562 " />
    <path
      style=" stroke:none;fill-rule:evenodd;fill:rgb(90.980392%,26.27451%,21.176471%);fill-opacity:1;"
      d="M 49.800781 55.671875 L 49.800781 28.226562 L 75.023438 47.234375 L 100.25 28.226562 L 100.25 55.671875 L 75.023438 74.679688 Z M 49.800781 55.671875 " />
    <path
      style=" stroke:none;fill-rule:nonzero;fill:rgb(77.647059%,13.333333%,12.156863%);fill-opacity:1;"
      d="M 28.773438 31.390625 L 28.773438 39.828125 L 49.800781 55.671875 L 49.800781 28.226562 L 43.898438 23.78125 C 37.675781 19.085938 28.773438 23.578125 28.773438 31.390625 Z M 28.773438 31.390625 " />
  </g>
</svg>